# xmcd
# Copyright (C) 1995-1998 Ti Kan
#
# Track frame offsets:
#       150
#       23531
#       37165
#       51002
#       72321
#       88366
#       107164
#       125338
#       140985
#       156024
#       175071
#       193647
#       214328
#       227776
#
# Disc length: 4199 seconds
#
# Revision: 2
# Processed by: cddbd v1.5PL3 Copyright (c) Steve Scherf et al.
# Submitted via: CD-Transfer v1.0
#
DISCID=cd10650e
DTITLE=Alan D. And Band - Paris
DYEAR=2004
DGENRE=
TTITLE0=Paris
TTITLE1=Walking Man
TTITLE2=Forever And Always
TTITLE3=It Ain't What You Are
TTITLE4=Don't Aks Me How I Feel
TTITLE5=You Gotta Know
TTITLE6=It Ain't No Small Thing
TTITLE7=The Way It Is [Part1]
TTITLE8=The Way It Is [Reprise]
TTITLE9=Break Of Dawn
TTITLE10=Just Like Always
TTITLE11=Walking Alone
TTITLE12=Sometimes
TTITLE13=Bonsoir Paris [Bonus Track]
EXTD=
EXTT0=
EXTT1=
EXTT2=
EXTT3=
EXTT4=
EXTT5=
EXTT6=
EXTT7=
EXTT8=
EXTT9=
EXTT10=
EXTT11=
EXTT12=
EXTT13=
PLAYORDER=
